<?xml version="1.0" standalone="no"?>
<!DOCTYPE svg PUBLIC "-//W3C//DTD SVG 20010904//EN"
 "http://www.w3.org/TR/2001/REC-SVG-20010904/DTD/svg10.dtd">
<svg version="1.0" xmlns="http://www.w3.org/2000/svg"
 width="125.000000pt" height="120.000000pt" viewBox="0 0 125.000000 120.000000"
 preserveAspectRatio="xMidYMid meet">
<metadata>
Created by potrace 1.16, written by Peter Selinger 2001-2019
</metadata>
<g transform="translate(0.000000,120.000000) scale(0.100000,-0.100000)"
fill="#000000" stroke="none">
<path d="M506 1153 c-2 -2 -12 -6 -23 -8 -10 -2 -19 -4 -20 -5 -2 -2 -7 -4
-13 -5 -5 -1 -11 -3 -12 -5 -2 -1 -11 -3 -21 -5 -26 -5 -97 -49 -145 -90 -45
-39 -105 -120 -105 -142 0 -7 -4 -13 -9 -13 -5 0 -7 -4 -4 -9 4 -5 2 -11 -3
-13 -25 -8 -50 -131 -50 -243 0 -112 25 -235 50 -243 5 -2 7 -8 3 -13 -3 -5 0
-9 6 -9 6 0 9 -4 6 -9 -10 -15 81 -128 136 -169 57 -42 118 -77 118 -66 0 4 6
2 13 -4 33 -28 241 -41 327 -21 30 7 57 13 60 14 26 6 50 18 50 26 0 6 4 8 9
5 14 -9 93 48 147 106 50 53 92 118 77 118 -5 0 -3 4 2 8 31 23 65 156 65 257
0 101 -34 234 -65 257 -5 4 -7 8 -2 8 16 0 -29 68 -84 125 -57 60 -130 112
-115 84 4 -8 1 -6 -7 3 -8 10 -17 15 -20 11 -4 -3 -7 -1 -7 5 0 9 -24 22 -55
28 -5 1 -29 7 -53 13 -40 11 -245 14 -256 4z m252 -425 l3 -38 -40 0 -41 0 0
-125 0 -125 -40 0 -40 0 0 125 0 125 -40 0 -40 0 0 40 0 41 118 -3 117 -3 3
-37z"/>
</g>
</svg>
